<svg width="22" height="26" viewBox="0 0 22 26" fill="none" xmlns="http://www.w3.org/2000/svg">
<path fill-rule="evenodd" clip-rule="evenodd" d="M7.46226 14.5234H5.60028C5.29305 14.5234 5.04169 14.2664 5.04169 13.9521V12.0479C5.04169 11.7336 5.29305 11.4766 5.60028 11.4766H7.46226C7.76949 11.4766 8.02085 11.7336 8.02085 12.0479V13.9521C8.02085 14.2664 7.76949 14.5234 7.46226 14.5234ZM12.4896 13.9521V12.0479C12.4896 11.7336 12.2382 11.4766 11.931 11.4766H10.069C9.7618 11.4766 9.51044 11.7336 9.51044 12.0479V13.9521C9.51044 14.2664 9.7618 14.5234 10.069 14.5234H11.931C12.2382 14.5234 12.4896 14.2664 12.4896 13.9521ZM16.9584 13.9521V12.0479C16.9584 11.7336 16.707 11.4766 16.3998 11.4766H14.5378C14.2306 11.4766 13.9792 11.7336 13.9792 12.0479V13.9521C13.9792 14.2664 14.2306 14.5234 14.5378 14.5234H16.3998C16.707 14.5234 16.9584 14.2664 16.9584 13.9521ZM12.4896 18.5225V16.6182C12.4896 16.304 12.2382 16.0469 11.931 16.0469H10.069C9.7618 16.0469 9.51044 16.304 9.51044 16.6182V18.5225C9.51044 18.8367 9.7618 19.0938 10.069 19.0938H11.931C12.2382 19.0938 12.4896 18.8367 12.4896 18.5225ZM8.02085 18.5225V16.6182C8.02085 16.304 7.76949 16.0469 7.46226 16.0469H5.60028C5.29305 16.0469 5.04169 16.304 5.04169 16.6182V18.5225C5.04169 18.8367 5.29305 19.0938 5.60028 19.0938H7.46226C7.76949 19.0938 8.02085 18.8367 8.02085 18.5225ZM16.9584 18.5225V16.6182C16.9584 16.304 16.707 16.0469 16.3998 16.0469H14.5378C14.2306 16.0469 13.9792 16.304 13.9792 16.6182V18.5225C13.9792 18.8367 14.2306 19.0938 14.5378 19.0938H16.3998C16.707 19.0938 16.9584 18.8367 16.9584 18.5225ZM21.4271 6.14453V22.9023C21.4271 24.1639 20.4263 25.1875 19.1927 25.1875H2.80731C1.57375 25.1875 0.572937 24.1639 0.572937 22.9023V6.14453C0.572937 4.88293 1.57375 3.85938 2.80731 3.85938H5.04169V1.38379C5.04169 1.06958 5.29305 0.8125 5.60028 0.8125H7.46226C7.76949 0.8125 8.02085 1.06958 8.02085 1.38379V3.85938H13.9792V1.38379C13.9792 1.06958 14.2306 0.8125 14.5378 0.8125H16.3998C16.707 0.8125 16.9584 1.06958 16.9584 1.38379V3.85938H19.1927C20.4263 3.85938 21.4271 4.88293 21.4271 6.14453ZM19.1927 22.6167V8.42969H2.80731V22.6167C2.80731 22.7738 2.933 22.9023 3.08661 22.9023H18.9134C19.067 22.9023 19.1927 22.7738 19.1927 22.6167Z" fill="#EA1B23"/>
</svg>
