<svg xmlns="http://www.w3.org/2000/svg" xmlns:xlink="http://www.w3.org/1999/xlink" version="1.1" id="Layer_1" x="0px" y="0px" viewBox="0 0 572 585" style="enable-background:new 0 0 572 585;" xml:space="preserve">
<style type="text/css">
	.st0{fill:url(#SVGID_1_);}
	.st1{opacity:0.7857;fill:url(#SVGID_2_);}
	.st2{opacity:0.5714;fill:url(#SVGID_3_);}
	.st3{opacity:0.3571;fill:url(#SVGID_4_);}
	.st4{fill:url(#SVGID_5_);}
	.st5{opacity:0.89;fill:url(#SVGID_6_);}
	.st6{opacity:0.79;fill:url(#SVGID_7_);}
	.st7{opacity:0.68;fill:url(#SVGID_8_);}
	.st8{opacity:0.5714;fill:url(#SVGID_9_);}
	.st9{opacity:0.4643;fill:url(#SVGID_10_);}
	.st10{opacity:0.3571;fill:url(#SVGID_11_);}
	.st11{opacity:0.25;fill:url(#SVGID_12_);}
</style>
<g>
	<g>
		<linearGradient id="SVGID_1_" gradientUnits="userSpaceOnUse" x1="153.5696" y1="363.9415" x2="153.5696" y2="526.1204">
			<stop offset="0" style="stop-color:#FF008B"/>
			<stop offset="1" style="stop-color:#EA1B23"/>
		</linearGradient>
		<path class="st0" d="M153.69,506.57l-29.56-37.37l-0.47,0.24v54.64H97.4V362.3c10.64-0.24,18.92,3.55,22.94,10.17    c3.31,5.2,3.31,10.64,3.31,17.74v60.78l0.47,0.24l19.63-28.62c9.46-13.72,21.29-19.87,34.29-19.87c5.68,0,13.95,0.95,19.39,3.31    c-9.46,3.31-23.18,16.56-31.69,27.67l-18.45,24.6l30.75,37.13c9.22,11.12,22.23,24.36,31.69,27.67    c-5.44,2.37-15.61,3.31-21.29,3.31C174.97,526.44,164.09,519.58,153.69,506.57z"/>
		<linearGradient id="SVGID_2_" gradientUnits="userSpaceOnUse" x1="228.0743" y1="421.8503" x2="228.0743" y2="514.8092">
			<stop offset="0" style="stop-color:#FF008B"/>
			<stop offset="1" style="stop-color:#EA1B23"/>
		</linearGradient>
		<path class="st1" d="M214.95,405.81c10.64-0.24,18.92,3.31,22.71,10.17c2.84,5.2,3.55,10.64,3.55,17.74v90.35h-26.25V405.81z"/>
		<linearGradient id="SVGID_3_" gradientUnits="userSpaceOnUse" x1="301.039" y1="413.4926" x2="301.039" y2="510.6946">
			<stop offset="0" style="stop-color:#FF008B"/>
			<stop offset="1" style="stop-color:#EA1B23"/>
		</linearGradient>
		<path class="st2" d="M267.69,405.81c10.64-0.24,18.92,3.31,22.71,10.17c1.18,2.13,1.89,4.26,2.37,6.39l0.47,0.24    c8.51-13.95,17.74-20.1,29.09-20.1c8.99,0,12.06,2.84,12.06,10.17v16.79c-12.06-1.89-23.65,0-30.75,7.57    c-5.91,6.15-9.7,15.85-9.7,29.33v57.71h-26.25V405.81z"/>
		<linearGradient id="SVGID_4_" gradientUnits="userSpaceOnUse" x1="399.3113" y1="408.7735" x2="399.3113" y2="516.7111">
			<stop offset="0" style="stop-color:#FF008B"/>
			<stop offset="1" style="stop-color:#EA1B23"/>
		</linearGradient>
		<path class="st3" d="M339.12,464.71c0-34.29,26.73-62.44,58.42-62.44c17.03,0,28.62,6.62,36.9,17.5h0.47    c3.31-9.22,12.77-14.19,24.6-13.95v118.26H434.2l-0.24-14.66l-0.71-0.24c-8.99,11.59-19.87,18.21-38.08,18.21    C365.37,527.38,339.12,501.37,339.12,464.71z M433.25,464.71c0-23.18-13.95-38.55-33.11-38.55c-18.92,0-33.35,15.61-33.35,38.55    c0,22.71,14.43,38.55,33.35,38.55C420.01,503.26,433.25,487.18,433.25,464.71z"/>
	</g>
	<linearGradient id="SVGID_5_" gradientUnits="userSpaceOnUse" x1="135.7991" y1="171.9435" x2="155.8109" y2="191.9553">
		<stop offset="0" style="stop-color:#FF008B"/>
		<stop offset="1" style="stop-color:#EA1B23"/>
	</linearGradient>
	<circle class="st4" cx="145.8" cy="181.95" r="14.15"/>
	<linearGradient id="SVGID_6_" gradientUnits="userSpaceOnUse" x1="99.6084" y1="233.3304" x2="125.3378" y2="259.0598">
		<stop offset="0" style="stop-color:#FF008B"/>
		<stop offset="1" style="stop-color:#EA1B23"/>
	</linearGradient>
	<circle class="st5" cx="112.47" cy="246.2" r="18.19"/>
	<linearGradient id="SVGID_7_" gradientUnits="userSpaceOnUse" x1="136.7854" y1="288.2886" x2="168.2324" y2="319.7356">
		<stop offset="0" style="stop-color:#FF008B"/>
		<stop offset="1" style="stop-color:#EA1B23"/>
	</linearGradient>
	<circle class="st6" cx="152.51" cy="304.01" r="22.24"/>
	<linearGradient id="SVGID_8_" gradientUnits="userSpaceOnUse" x1="212.0599" y1="311.6698" x2="249.2245" y2="348.8345">
		<stop offset="0" style="stop-color:#FF008B"/>
		<stop offset="1" style="stop-color:#EA1B23"/>
	</linearGradient>
	<circle class="st7" cx="230.64" cy="330.25" r="26.28"/>
	<linearGradient id="SVGID_9_" gradientUnits="userSpaceOnUse" x1="304.8802" y1="296.2643" x2="347.7625" y2="339.1466">
		<stop offset="0" style="stop-color:#FF008B"/>
		<stop offset="1" style="stop-color:#EA1B23"/>
	</linearGradient>
	<circle class="st8" cx="326.32" cy="317.71" r="30.32"/>
	<linearGradient id="SVGID_10_" gradientUnits="userSpaceOnUse" x1="392.806" y1="240.1621" x2="436.9878" y2="284.3439">
		<stop offset="0" style="stop-color:#FF008B"/>
		<stop offset="1" style="stop-color:#EA1B23"/>
	</linearGradient>
	<circle class="st9" cx="414.9" cy="262.25" r="31.24"/>
	<linearGradient id="SVGID_11_" gradientUnits="userSpaceOnUse" x1="406.0859" y1="126.6681" x2="460.4035" y2="180.9857">
		<stop offset="0" style="stop-color:#FF008B"/>
		<stop offset="1" style="stop-color:#EA1B23"/>
	</linearGradient>
	<circle class="st10" cx="433.24" cy="153.83" r="38.41"/>
	<linearGradient id="SVGID_12_" gradientUnits="userSpaceOnUse" x1="297.2336" y1="80.1387" x2="352.5087" y2="135.4137">
		<stop offset="0" style="stop-color:#FF008B"/>
		<stop offset="1" style="stop-color:#EA1B23"/>
	</linearGradient>
	<circle class="st11" cx="324.87" cy="107.78" r="39.09"/>
</g>
</svg>